<mxfile host="" modified="2020-06-05T06:10:19.705Z" agent="5.0 (Macintosh; Intel Mac OS X 10_15_4) AppleWebKit/537.36 (KHTML, like Gecko) Code/1.45.1 Chrome/78.0.3904.130 Electron/7.2.4 Safari/537.36" etag="3N3qvof8D4rtWEKIlwFW" version="13.1.3">
    <diagram id="6hGFLwfOUW9BJ-s0fimq" name="Page-1">
        <mxGraphModel dx="1465" dy="785" grid="1" gridSize="10" guides="1" tooltips="1" connect="1" arrows="1" fold="1" page="1" pageScale="1" pageWidth="827" pageHeight="1169" math="0" shadow="0">
            <root>
                <mxCell id="0"/>
                <mxCell id="1" parent="0"/>
                <mxCell id="2" value="&lt;div style=&quot;color: rgb(171 , 178 , 191) ; background-color: rgb(40 , 44 , 52) ; font-family: &amp;#34;monaco&amp;#34; , &amp;#34;menlo&amp;#34; , &amp;#34;monaco&amp;#34; , &amp;#34;courier new&amp;#34; , monospace ; font-size: 13px ; line-height: 20px&quot;&gt;&lt;div&gt;&lt;span style=&quot;color: #c678dd&quot;&gt;struct&lt;/span&gt; &lt;span style=&quot;color: #e5c07b&quot;&gt;rtable&lt;/span&gt;&lt;/div&gt;&lt;div&gt;{&lt;/div&gt;&lt;div&gt;    &lt;span style=&quot;color: #c678dd&quot;&gt;&amp;nbsp; struct&lt;/span&gt; &lt;span style=&quot;color: #e5c07b&quot;&gt;dst_entry&lt;/span&gt; &lt;span style=&quot;color: #e06c75&quot;&gt;dst&lt;/span&gt;;&lt;/div&gt;&lt;br&gt;&lt;div&gt;    &lt;span style=&quot;color: #c678dd&quot;&gt;&amp;nbsp; int&lt;/span&gt; rt_genid;&lt;/div&gt;&lt;div&gt;    &lt;span style=&quot;color: #c678dd&quot;&gt;&amp;nbsp; unsigned&lt;/span&gt; &lt;span style=&quot;color: #c678dd&quot;&gt;int&lt;/span&gt; rt_flags;&lt;/div&gt;&lt;div&gt;&amp;nbsp; __u16 rt_type;&lt;/div&gt;&lt;div&gt;&amp;nbsp; __u8 rt_is_input;&lt;/div&gt;&lt;div&gt;&amp;nbsp; __u8 rt_uses_gateway;&lt;/div&gt;&lt;br&gt;&lt;div&gt;    &lt;span style=&quot;color: #c678dd&quot;&gt;&amp;nbsp; int&lt;/span&gt; rt_iif;&lt;/div&gt;&lt;br&gt;&lt;div&gt;&lt;span style=&quot;color: #7f848e ; font-style: italic&quot;&gt;&amp;nbsp; /* Info on neighbour */&lt;/span&gt;&lt;/div&gt;&lt;div&gt;&amp;nbsp; __be32 rt_gateway;&lt;/div&gt;&lt;br&gt;&lt;div&gt;&lt;span style=&quot;color: #7f848e ; font-style: italic&quot;&gt;&amp;nbsp; /* Miscellaneous cached information */&lt;/span&gt;&lt;/div&gt;&lt;div&gt;&lt;span style=&quot;color: #c678dd&quot;&gt;#ifdef&lt;/span&gt; __GENKSYMS__&lt;/div&gt;&lt;div&gt;&amp;nbsp; u32 rt_pmtu;&lt;/div&gt;&lt;div&gt;&lt;span style=&quot;color: #c678dd&quot;&gt;#else&lt;/span&gt;&lt;/div&gt;&lt;div&gt;&amp;nbsp; u32 rt_mtu_locked : &lt;span style=&quot;color: #d19a66&quot;&gt;1&lt;/span&gt;,&lt;/div&gt;&lt;div&gt;&amp;nbsp; rt_pmtu : &lt;span style=&quot;color: #d19a66&quot;&gt;31&lt;/span&gt;;&lt;/div&gt;&lt;div&gt;&lt;span style=&quot;color: #c678dd&quot;&gt;#endif&lt;/span&gt;&lt;/div&gt;&lt;br&gt;&lt;div&gt;    &lt;span style=&quot;color: #c678dd&quot;&gt;&amp;nbsp; struct&lt;/span&gt; &lt;span style=&quot;color: #e5c07b&quot;&gt;list_head&lt;/span&gt; &lt;span style=&quot;color: #e06c75&quot;&gt;rt_uncached&lt;/span&gt;;&lt;/div&gt;&lt;div&gt;};&lt;/div&gt;&lt;/div&gt;" style="align=left;rounded=0;whiteSpace=wrap;html=1;" vertex="1" parent="1">
                    <mxGeometry width="360" height="510" as="geometry"/>
                </mxCell>
                <mxCell id="3" value="Trie" style="text;html=1;strokeColor=none;fillColor=none;align=center;verticalAlign=middle;whiteSpace=wrap;rounded=0;" vertex="1" parent="1">
                    <mxGeometry x="530" y="250" width="40" height="20" as="geometry"/>
                </mxCell>
            </root>
        </mxGraphModel>
    </diagram>
</mxfile>